<svg xmlns="http://www.w3.org/2000/svg" width="1100" height="702" viewBox="0 0 1100 702">
<rect width="100%" height="100%" fill="#0f172a"/>
<text x="550.0" y="36" text-anchor="middle" font-family="Arial, sans-serif" font-size="24" font-weight="700" fill="#f8fafc">libmembus Data Throughput</text>
<line x1="300" y1="55" x2="1060" y2="55" stroke="#334155"/>
<text x="288" y="93" text-anchor="end" font-family="Arial, sans-serif" font-size="14" fill="#cbd5e1">memmap read/write (64 KiB)</text>
<rect x="300" y="70" width="760.00" height="34" rx="4" fill="#60a5fa"/>
<text x="1052.0" y="93" text-anchor="end" font-family="Arial, sans-serif" font-size="14" font-weight="700" fill="#0f172a">49.47K MiB/s</text>
<text x="288" y="145" text-anchor="end" font-family="Arial, sans-serif" font-size="14" fill="#cbd5e1">memmsg single writer/reader (64 B)</text>
<rect x="300" y="122" width="7.44" height="34" rx="4" fill="#34d399"/>
<text x="315.4399644261185" y="145" font-family="Arial, sans-serif" font-size="14" fill="#e2e8f0">484 MiB/s</text>
<text x="288" y="197" text-anchor="end" font-family="Arial, sans-serif" font-size="14" fill="#cbd5e1">memcmd 4 writers/1 reader (64 B)</text>
<rect x="300" y="174" width="7.40" height="34" rx="4" fill="#a78bfa"/>
<text x="315.3991490565847" y="197" font-family="Arial, sans-serif" font-size="14" fill="#e2e8f0">482 MiB/s</text>
<text x="288" y="249" text-anchor="end" font-family="Arial, sans-serif" font-size="14" fill="#cbd5e1">memkv setValue (64 B value)</text>
<rect x="300" y="226" width="10.17" height="34" rx="4" fill="#fb7185"/>
<text x="318.16636044831176" y="249" font-family="Arial, sans-serif" font-size="14" fill="#e2e8f0">662 MiB/s</text>
<text x="288" y="301" text-anchor="end" font-family="Arial, sans-serif" font-size="14" fill="#cbd5e1">memkv getValue (64 B value)</text>
<rect x="300" y="278" width="31.26" height="34" rx="4" fill="#fb7185"/>
<text x="339.2559399286501" y="301" font-family="Arial, sans-serif" font-size="14" fill="#e2e8f0">2.03K MiB/s</text>
<text x="288" y="353" text-anchor="end" font-family="Arial, sans-serif" font-size="14" fill="#cbd5e1">memvid publish (640x480)</text>
<rect x="300" y="330" width="626.62" height="34" rx="4" fill="#fb923c"/>
<text x="934.615003688769" y="353" font-family="Arial, sans-serif" font-size="14" fill="#e2e8f0">40.79K MiB/s</text>
<text x="288" y="405" text-anchor="end" font-family="Arial, sans-serif" font-size="14" fill="#cbd5e1">memvid publish (1920x1080)</text>
<rect x="300" y="382" width="375.74" height="34" rx="4" fill="#fb923c"/>
<text x="683.7425744575488" y="405" font-family="Arial, sans-serif" font-size="14" fill="#e2e8f0">24.46K MiB/s</text>
<text x="288" y="457" text-anchor="end" font-family="Arial, sans-serif" font-size="14" fill="#cbd5e1">memaud publish (stereo S16LE 48k/100fps)</text>
<rect x="300" y="434" width="519.10" height="34" rx="4" fill="#22d3ee"/>
<text x="827.0971510576155" y="457" font-family="Arial, sans-serif" font-size="14" fill="#e2e8f0">33.79K MiB/s</text>
<text x="288" y="509" text-anchor="end" font-family="Arial, sans-serif" font-size="14" fill="#cbd5e1">mempkt write (1024 B/record (incl. copy))</text>
<rect x="300" y="486" width="297.08" height="34" rx="4" fill="#818cf8"/>
<text x="605.0765950135929" y="509" font-family="Arial, sans-serif" font-size="14" fill="#e2e8f0">19.34K MiB/s</text>
<text x="288" y="561" text-anchor="end" font-family="Arial, sans-serif" font-size="14" fill="#cbd5e1">mempkt write (32768 B/record (incl. copy))</text>
<rect x="300" y="538" width="462.07" height="34" rx="4" fill="#818cf8"/>
<text x="770.0723807213817" y="561" font-family="Arial, sans-serif" font-size="14" fill="#e2e8f0">30.08K MiB/s</text>
<text x="288" y="613" text-anchor="end" font-family="Arial, sans-serif" font-size="14" fill="#cbd5e1">mempkt read (32768 B/record (copy-out))</text>
<rect x="300" y="590" width="293.29" height="34" rx="4" fill="#818cf8"/>
<text x="601.29307016746" y="613" font-family="Arial, sans-serif" font-size="14" fill="#e2e8f0">19.09K MiB/s</text>
<text x="300" y="682" font-family="Arial, sans-serif" font-size="12" fill="#94a3b8">Generated from bench-libmembus JSON output.</text>
</svg>