<svg xmlns="http://www.w3.org/2000/svg" width="1100" height="702" viewBox="0 0 1100 702">
<rect width="100%" height="100%" fill="#0f172a"/>
<text x="550.0" y="36" text-anchor="middle" font-family="Arial, sans-serif" font-size="24" font-weight="700" fill="#f8fafc">libmembus Operations Throughput</text>
<line x1="300" y1="55" x2="1060" y2="55" stroke="#334155"/>
<text x="288" y="93" text-anchor="end" font-family="Arial, sans-serif" font-size="14" fill="#cbd5e1">memmap read/write (64 KiB)</text>
<rect x="300" y="70" width="9.02" height="34" rx="4" fill="#60a5fa"/>
<text x="317.023264520077" y="93" font-family="Arial, sans-serif" font-size="14" fill="#e2e8f0">395.80K ops/s</text>
<text x="288" y="145" text-anchor="end" font-family="Arial, sans-serif" font-size="14" fill="#cbd5e1">memmsg single writer/reader (64 B)</text>
<rect x="300" y="122" width="180.91" height="34" rx="4" fill="#34d399"/>
<text x="488.90528728184637" y="145" font-family="Arial, sans-serif" font-size="14" fill="#e2e8f0">7.94M ops/s</text>
<text x="288" y="197" text-anchor="end" font-family="Arial, sans-serif" font-size="14" fill="#cbd5e1">memcmd 4 writers/1 reader (64 B)</text>
<rect x="300" y="174" width="179.91" height="34" rx="4" fill="#a78bfa"/>
<text x="487.9129005357475" y="197" font-family="Arial, sans-serif" font-size="14" fill="#e2e8f0">7.89M ops/s</text>
<text x="288" y="249" text-anchor="end" font-family="Arial, sans-serif" font-size="14" fill="#cbd5e1">memkv setValue (64 B value)</text>
<rect x="300" y="226" width="247.20" height="34" rx="4" fill="#fb7185"/>
<text x="555.198454551454" y="249" font-family="Arial, sans-serif" font-size="14" fill="#e2e8f0">10.84M ops/s</text>
<text x="288" y="301" text-anchor="end" font-family="Arial, sans-serif" font-size="14" fill="#cbd5e1">memkv getValue (64 B value)</text>
<rect x="300" y="278" width="760.00" height="34" rx="4" fill="#fb7185"/>
<text x="1052.0" y="301" text-anchor="end" font-family="Arial, sans-serif" font-size="14" font-weight="700" fill="#0f172a">33.34M ops/s</text>
<text x="288" y="353" text-anchor="end" font-family="Arial, sans-serif" font-size="14" fill="#cbd5e1">memvid publish (640x480)</text>
<rect x="300" y="330" width="1.06" height="34" rx="4" fill="#fb923c"/>
<text x="309.05808078808275" y="353" font-family="Arial, sans-serif" font-size="14" fill="#e2e8f0">46.41K ops/s</text>
<text x="288" y="405" text-anchor="end" font-family="Arial, sans-serif" font-size="14" fill="#cbd5e1">memvid publish (1920x1080)</text>
<rect x="300" y="382" width="0.09" height="34" rx="4" fill="#fb923c"/>
<text x="308.0939949604939" y="405" font-family="Arial, sans-serif" font-size="14" fill="#e2e8f0">4.12K ops/s</text>
<text x="288" y="457" text-anchor="end" font-family="Arial, sans-serif" font-size="14" fill="#cbd5e1">memaud publish (stereo S16LE 48k/100fps)</text>
<rect x="300" y="434" width="420.73" height="34" rx="4" fill="#22d3ee"/>
<text x="728.7327681887175" y="457" font-family="Arial, sans-serif" font-size="14" fill="#e2e8f0">18.45M ops/s</text>
<text x="288" y="509" text-anchor="end" font-family="Arial, sans-serif" font-size="14" fill="#cbd5e1">mempkt write (1024 B/record (incl. copy))</text>
<rect x="300" y="486" width="451.47" height="34" rx="4" fill="#818cf8"/>
<text x="759.4709958424075" y="509" font-family="Arial, sans-serif" font-size="14" fill="#e2e8f0">19.80M ops/s</text>
<text x="288" y="561" text-anchor="end" font-family="Arial, sans-serif" font-size="14" fill="#cbd5e1">mempkt write (32768 B/record (incl. copy))</text>
<rect x="300" y="538" width="21.94" height="34" rx="4" fill="#818cf8"/>
<text x="329.94421746668826" y="561" font-family="Arial, sans-serif" font-size="14" fill="#e2e8f0">962.56K ops/s</text>
<text x="288" y="613" text-anchor="end" font-family="Arial, sans-serif" font-size="14" fill="#cbd5e1">mempkt read (32768 B/record (copy-out))</text>
<rect x="300" y="590" width="13.93" height="34" rx="4" fill="#818cf8"/>
<text x="321.9287509824037" y="613" font-family="Arial, sans-serif" font-size="14" fill="#e2e8f0">610.97K ops/s</text>
<text x="300" y="682" font-family="Arial, sans-serif" font-size="12" fill="#94a3b8">Generated from bench-libmembus JSON output.</text>
</svg>